<?xml version="1.0" encoding="utf-8"?>
<!-- Generator: Adobe Illustrator 21.0.0, SVG Export Plug-In . SVG Version: 6.00 Build 0)  -->
<!DOCTYPE svg PUBLIC "-//W3C//DTD SVG 1.1//EN" "http://www.w3.org/Graphics/SVG/1.1/DTD/svg11.dtd">
<svg version="1.1" id="Laag_1" xmlns="http://www.w3.org/2000/svg" xmlns:xlink="http://www.w3.org/1999/xlink" x="0px" y="0px"
	 width="1275px" height="850px" viewBox="0 0 1275 850" style="enable-background:new 0 0 1275 850;" xml:space="preserve">
<style type="text/css">
	.st0{fill:none;}
	.st1{fill:#2175D9;}
	.st2{fill:#FFB511;}
	.st3{fill:#0F1941;}
</style>
<rect class="st0" width="1275" height="850"/>
<path class="st1" d="M572.8,240.2c0,40.8-33.1,73.9-73.9,73.9c-40.8,0-73.9-33.1-73.9-73.9s33.1-73.9,73.9-73.9
	C539.7,166.3,572.8,199.4,572.8,240.2"/>
<path class="st2" d="M850,295.7c0,51-41.4,92.4-92.4,92.4s-92.4-41.4-92.4-92.4c0-51,41.4-92.4,92.4-92.4S850,244.6,850,295.7"/>
<path class="st1" d="M498.9,332.6c-40.8,0-73.9,33.1-73.9,73.9h0v110.9h147.8V406.5C572.8,365.7,539.7,332.6,498.9,332.6z"/>
<path class="st3" d="M960.9,554.3H295.7c-10.2,0-18.5-8.3-18.5-18.5l0,0c0-10.2,8.3-18.5,18.5-18.5h665.2c10.2,0,18.5,8.3,18.5,18.5
	l0,0C979.3,546.1,971.1,554.3,960.9,554.3z"/>
<path class="st2" d="M850,498.9c0-51-41.4-92.4-92.4-92.4c-51,0-92.4,41.4-92.4,92.4l0,0v147.8H850V498.9L850,498.9z"/>
<g>
</g>
<g>
</g>
<g>
</g>
<g>
</g>
<g>
</g>
<g>
</g>
<g>
</g>
<g>
</g>
<g>
</g>
<g>
</g>
<g>
</g>
<g>
</g>
<g>
</g>
<g>
</g>
<g>
</g>
</svg>
