<?xml version="1.0" encoding="utf-8"?>
<!-- Generator: Adobe Illustrator 21.0.0, SVG Export Plug-In . SVG Version: 6.00 Build 0)  -->
<!DOCTYPE svg PUBLIC "-//W3C//DTD SVG 1.1//EN" "http://www.w3.org/Graphics/SVG/1.1/DTD/svg11.dtd">
<svg version="1.1" id="Laag_1" xmlns="http://www.w3.org/2000/svg" xmlns:xlink="http://www.w3.org/1999/xlink" x="0px" y="0px"
	 width="1275px" height="850px" viewBox="0 0 1275 850" style="enable-background:new 0 0 1275 850;" xml:space="preserve">
<style type="text/css">
	.st0{fill:none;}
	.st1{fill:#6BA5B4;}
	.st2{fill:#FFB511;}
</style>
<rect class="st0" width="1275" height="850"/>
<path class="st1" d="M1053.1,369.6c0-41.1-33.3-74.4-74.4-74.4s-74.4,33.3-74.4,74.4c0,27.9,15.4,52.2,38.1,64.9v47.3
	c0,20.1,16.3,36.4,36.4,36.4c20.1,0,36.4-16.3,36.4-36.4v-47.3C1037.8,421.8,1053.1,397.5,1053.1,369.6z"/>
<path class="st2" d="M776.3,332.6c-0.2,0-0.3,0-0.5,0v0h-8.9v0H477.8c-16.4-64.3-74.8-111.9-144.3-111.9
	c-82.2,0-148.9,66.7-148.9,148.9s66.7,148.9,148.9,148.9c69.3,0,127.5-47.3,144.1-111.4h169v73.4h110.9V407h15.1v0h3.2v0
	c0.2,0,0.3,0,0.5,0c20.6,0,37.2-16.7,37.2-37.2C813.5,349.3,796.9,332.6,776.3,332.6z M333.5,444c-41.1,0-74.4-33.3-74.4-74.4
	s33.3-74.4,74.4-74.4c41.1,0,74.4,33.3,74.4,74.4S374.6,444,333.5,444z"/>
<g>
</g>
<g>
</g>
<g>
</g>
<g>
</g>
<g>
</g>
<g>
</g>
<g>
</g>
<g>
</g>
<g>
</g>
<g>
</g>
<g>
</g>
<g>
</g>
<g>
</g>
<g>
</g>
<g>
</g>
</svg>
