<?xml version="1.0" encoding="UTF-8"?>
<svg width="200px" height="198px" viewBox="0 0 200 198" version="1.1" xmlns="http://www.w3.org/2000/svg" xmlns:xlink="http://www.w3.org/1999/xlink">
    <!-- Generator: Sketch 50 (54983) - http://www.bohemiancoding.com/sketch -->
    <title>LP-SKU-27-2-ITEM-IMG_1-en-us-1539260632641</title>
    <desc>Created with Sketch.</desc>
    <defs>
        <polygon id="path-1" points="0 0.340909091 199.654943 0.340909091 199.654943 197.727273 0 197.727273"></polygon>
        <polygon id="path-3" points="0 197.386364 199.655172 197.386364 199.655172 -2.84217094e-14 0 -2.84217094e-14"></polygon>
        <polygon id="path-5" points="0 197.386364 199.655172 197.386364 199.655172 -2.84217094e-14 0 -2.84217094e-14"></polygon>
        <polygon id="path-7" points="0 197.386364 199.655172 197.386364 199.655172 -2.84217094e-14 0 -2.84217094e-14"></polygon>
    </defs>
    <g id="Page-1" stroke="none" stroke-width="1" fill="none" fill-rule="evenodd">
        <g id="LP-SKU-27-2-ITEM-IMG_1-en-us-1539260632641" transform="translate(0.000000, -1.000000)">
            <g id="Group-3" transform="translate(0.000000, 0.795455)">
                <g id="Fill-1-Clipped">
                    <mask id="mask-2" fill="white">
                        <use xlink:href="#path-1"></use>
                    </mask>
                    <g id="path-1"></g>
                    <path d="M199.654943,99.03375 C199.654943,153.542841 154.961839,197.728068 99.8273563,197.728068 C44.6963218,197.728068 -0.000229885057,153.542841 -0.000229885057,99.03375 C-0.000229885057,44.5280682 44.6963218,0.340568182 99.8273563,0.340568182 C154.961839,0.340568182 199.654943,44.5280682 199.654943,99.03375" id="Fill-1" fill="#C8122E" fill-rule="nonzero" mask="url(#mask-2)"></path>
                </g>
            </g>
            <polygon id="Fill-4" fill="#FF9200" fill-rule="nonzero" points="101.107471 134.116477 101.107471 134.116477 101.107471 134.114205"></polygon>
            <path d="M92.0501149,143.285114 C90.3937931,145.231705 81.9685057,147.791932 79.48,147.791932 C76.9926437,147.791932 72.0374713,146.377159 67.7455172,144.776023 C66.2604598,144.221477 66.6501149,142.171477 66.6282759,139.506705 C66.6167816,138.379432 89.2236782,137.955568 91.5317241,138.16125 C92.671954,138.263523 92.7822989,142.42375 92.0501149,143.285114 M89.1972414,118.401023 C87.6098851,116.732841 88.6777011,115.596477 87.4432184,115.221477 C86.2075862,114.846477 74.7742529,112.813523 74.7742529,112.813523 C75.3524138,111.303295 75.934023,109.957841 76.5167816,108.744205 C72.517931,110.643068 68.3673563,113.130568 63.763908,115.172614 C56.225977,118.51125 50.296092,121.678295 50.8167816,122.260114 C51.2547126,122.752159 57.3891954,136.097614 60.3926437,145.318068 C71.8110345,152.943068 85.5455172,157.427159 100.327126,157.56125 L100.327126,134.116932 L101.106437,134.116932 C99.7121839,133.264659 96.7006897,126.294205 89.1972414,118.401023" id="Fill-6" fill="#FFFFFF" fill-rule="nonzero"></path>
            <path d="M101.107471,134.116477 L101.172989,134.116477 C101.172989,134.116477 101.181034,134.090341 101.19023,134.053977 C101.161494,134.074432 101.131609,134.109659 101.107471,134.116477" id="Fill-8" fill="#FF9200" fill-rule="nonzero"></path>
            <path d="M101.887586,134.116477 L101.173793,134.116477 L101.105977,134.116477 L100.330115,134.116477 L100.330115,157.558523 C100.549655,157.560795 100.771494,157.576705 100.996782,157.576705 C101.292184,157.576705 101.588736,157.55625 101.887586,157.553977 L101.887586,134.116477 Z" id="Fill-10" fill="#C8122E" fill-rule="nonzero"></path>
            <path d="M101.887586,134.116477 L101.173793,134.116477 L101.105977,134.116477 L100.330115,134.116477 L100.330115,157.558523 C100.549655,157.560795 100.771494,157.576705 100.996782,157.576705 C101.292184,157.576705 101.588736,157.55625 101.887586,157.553977 L101.887586,134.116477 Z" id="Stroke-12" stroke="#C8122E" stroke-width="1.593"></path>
            <path d="M74.7728736,112.811932 C74.7728736,112.811932 86.2085057,114.844886 87.4452874,115.219886 C88.6786207,115.597159 87.611954,116.733523 89.1993103,118.401705 C96.7027586,126.292614 99.711954,133.265341 101.106207,134.117614 L101.106207,134.115341 C101.09931,134.091477 98.3073563,123.208523 91.7188506,114.258523 C90.9073563,113.408523 90.1625287,112.348295 89.5222989,111.178977 C88.5590805,109.413068 87.8498851,107.389205 87.5510345,105.401705 C87.2188506,103.199432 87.3855172,101.046023 88.2924138,99.3607955 L88.5993103,97.9892045 L88.6510345,97.7744318 L88.7498851,97.3278409 C88.7498851,97.3278409 88.7429885,97.3301136 88.7383908,97.3301136 C85.6406897,98.0801136 81.0464368,99.30625 76.5177011,108.742614 C75.936092,109.958523 75.3521839,111.302841 74.7728736,112.811932" id="Fill-14" fill="#FFFFFF" fill-rule="nonzero"></path>
            <path d="M74.7728736,112.811932 C74.7728736,112.811932 86.2085057,114.844886 87.4452874,115.219886 C88.6786207,115.597159 87.611954,116.733523 89.1993103,118.401705 C96.7027586,126.292614 99.711954,133.265341 101.106207,134.117614 L101.106207,134.115341 C101.09931,134.091477 98.3073563,123.208523 91.7188506,114.258523 C90.9073563,113.408523 90.1625287,112.348295 89.5222989,111.178977 C88.5590805,109.413068 87.8498851,107.389205 87.5510345,105.401705 C87.2188506,103.199432 87.3855172,101.046023 88.2924138,99.3607955 L88.5993103,97.9892045 L88.6510345,97.7744318 L88.7498851,97.3278409 C88.7498851,97.3278409 88.7429885,97.3301136 88.7383908,97.3301136 C85.6406897,98.0801136 81.0464368,99.30625 76.5177011,108.742614 C75.936092,109.958523 75.3521839,111.302841 74.7728736,112.811932 Z" id="Stroke-16" stroke="#C8122E" stroke-width="1.593"></path>
            <path d="M113.684943,97.4976136 L113.72977,97.6817045 L114.163103,99.6101136 C115.028621,101.222614 115.198736,103.222614 114.892989,105.278295 C114.58954,107.316932 113.814828,109.406705 112.775747,111.231705 C112.122874,112.371477 111.37,113.410114 110.561954,114.260114 C104.241264,122.844205 101.415977,133.202159 101.191839,134.054432 C101.182644,134.089659 101.173448,134.116932 101.173448,134.116932 C102.568851,133.264659 105.579195,126.294205 113.083793,118.402159 C114.67,116.732841 113.604483,115.596477 114.837816,115.219205 C116.07,114.844205 127.50908,112.81125 127.50908,112.81125 C126.820575,111.015795 126.126322,109.447614 125.433218,108.057841 C121.034368,99.2396591 116.672299,98.0589773 113.64931,97.3294318 L113.647011,97.3294318 L113.684943,97.4976136 Z" id="Fill-18" fill="#FFFFFF" fill-rule="nonzero"></path>
            <path d="M113.684943,97.4976136 L113.72977,97.6817045 L114.163103,99.6101136 C115.028621,101.222614 115.198736,103.222614 114.892989,105.278295 C114.58954,107.316932 113.814828,109.406705 112.775747,111.231705 C112.122874,112.371477 111.37,113.410114 110.561954,114.260114 C104.241264,122.844205 101.415977,133.202159 101.191839,134.054432 C101.182644,134.089659 101.173448,134.116932 101.173448,134.116932 C102.568851,133.264659 105.579195,126.294205 113.083793,118.402159 C114.67,116.732841 113.604483,115.596477 114.837816,115.219205 C116.07,114.844205 127.50908,112.81125 127.50908,112.81125 C126.820575,111.015795 126.126322,109.447614 125.433218,108.057841 C121.034368,99.2396591 116.672299,98.0589773 113.64931,97.3294318 L113.647011,97.3294318 L113.684943,97.4976136 Z" id="Stroke-20" stroke="#C8122E" stroke-width="1.593"></path>
            <path d="M119.705977,102.747727 C117.138161,107.823864 109.527816,111.525 100.527816,111.525 C91.2381609,111.525 83.4025287,107.568182 81.1278161,102.225 L85.2852874,100.835227 L85.2852874,93.4795455 C89.8036782,97.4511364 95.3117241,99.6193182 100.93931,99.6193182 C106.292184,99.6193182 111.394483,97.7397727 115.771494,94.1556818 L115.771494,101.175 L119.705977,102.747727 Z" id="Fill-22" fill="#FFFFFF" fill-rule="nonzero"></path>
            <g id="Fill-24-Clipped" transform="translate(0.000000, 1.136364)">
                <mask id="mask-4" fill="white">
                    <use xlink:href="#path-3"></use>
                </mask>
                <g id="path-3"></g>
                <path d="M109.56092,146.319318 L134.233333,146.319318 L134.233333,135.115909 L109.56092,135.115909 L109.56092,146.319318 Z M151.147126,120.906818 C150.626437,119.978409 145.104598,117.085227 138.225287,114.036364 C133.445977,111.917045 129.396552,109.045455 125.433333,106.921591 C126.126437,108.311364 126.82069,109.879545 127.509195,111.675 C127.509195,111.675 116.070115,113.707955 114.83908,114.082955 C113.604598,114.460227 114.670115,115.596591 113.082759,117.264773 C105.57931,125.155682 102.568966,132.128409 101.173563,132.980682 L101.887356,132.980682 L101.887356,156.415909 C116.583908,156.239773 130.235632,151.767045 141.597701,144.181818 C144.598851,134.960227 150.733333,121.617045 151.171264,121.123864 C151.218391,121.075 151.196552,120.995455 151.147126,120.906818 Z" id="Fill-24" fill="#FFFFFF" fill-rule="nonzero" mask="url(#mask-4)"></path>
            </g>
            <g id="Stroke-26-Clipped" transform="translate(0.000000, 1.136364)">
                <mask id="mask-6" fill="white">
                    <use xlink:href="#path-5"></use>
                </mask>
                <g id="path-3"></g>
                <path d="M100.39023,98.3154545 C106.446552,98.2927273 108.56954,96.6279545 114.084483,92.2597727 C114.540805,91.8972727 114.93046,91.5018182 115.292529,91.0915909 C119.76954,85.9972727 117.52931,77.5654545 120.739655,77.6768182 C125.656897,77.845 127.787931,74.1120455 126.631609,69.2813636 C126.021264,66.7279545 124.074138,66.5109091 122.636207,67.0506818 C122.053448,68.8438636 121.294828,70.8506818 120.859195,70.7347727 C120.079885,70.5313636 120.421264,64.6018182 121.635057,57.6586364 C122.92931,50.2665909 112.571839,53.4893182 105.318966,53.2825 C98.0706897,53.0756818 80.7189655,51.7040909 79.4258621,55.1927273 C78.1316092,58.6859091 81.2373563,69.3620455 80.2028736,69.7745455 C79.6545977,69.9893182 79.0350575,68.6404545 78.4212644,67.17 C76.9683908,66.4881818 74.7971264,66.5575 74.1465517,69.2813636 C72.9902299,74.1120455 75.1235632,77.845 80.0385057,77.6768182 C83.1028736,77.57 81.1971264,85.2484091 84.912069,90.3768182 C85.4005747,91.0552273 85.9821839,91.695 86.695977,92.2597727 C92.2109195,96.6279545 94.333908,98.2927273 100.39023,98.3154545 Z" id="Stroke-26" stroke="#FFFFFF" stroke-width="1.5" mask="url(#mask-6)"></path>
            </g>
            <g id="Fill-27-Clipped" transform="translate(0.000000, 1.136364)">
                <mask id="mask-8" fill="white">
                    <use xlink:href="#path-7"></use>
                </mask>
                <g id="path-3"></g>
                <path d="M80.2022989,71.9405682 C81.2367816,71.4769318 78.1298851,59.4382955 79.4252874,55.5064773 C80.7183908,51.5701136 98.0712644,53.1189773 105.31954,53.3496591 C112.571264,53.5826136 122.929885,49.9496591 121.634483,58.2826136 C120.42069,66.10875 120.081609,72.7951136 120.858621,73.0257955 C121.293103,73.1542045 122.054023,70.8917045 122.635632,68.8723864 C123.095402,67.2848864 123.448276,65.8496591 123.448276,65.8496591 C127.073563,63.7667045 125.778161,48.7201136 125.778161,46.4030682 C125.778161,44.0894318 122.152874,40.1542045 120.6,40.1542045 C119.047126,40.1542045 120.34023,33.6723864 109.722989,30.8951136 C99.1057471,28.1167045 89.7850575,29.5053409 84.6034483,32.0530682 C79.4252874,34.6007955 75.5402299,38.9973864 73.2103448,39.6939773 C70.8816092,40.3848864 73.9873563,42.0076136 72.1758621,43.6257955 C70.362069,45.2485227 73.4689655,47.3314773 73.9873563,50.57125 C74.5057471,53.8132955 75.8011494,64.2280682 76.8356322,65.3871591 C77.3252874,65.93375 77.8701149,67.5223864 78.4195402,69.0053409 C79.0344828,70.6621591 79.654023,72.1848864 80.2022989,71.9405682" id="Fill-27" fill="#FFFFFF" fill-rule="nonzero" mask="url(#mask-8)"></path>
            </g>
        </g>
    </g>
</svg>